<?xml version="1.0" encoding="utf-8"?>
<!-- Generator: Adobe Illustrator 16.0.0, SVG Export Plug-In . SVG Version: 6.00 Build 0)  -->
<!DOCTYPE svg PUBLIC "-//W3C//DTD SVG 1.1//EN" "http://www.w3.org/Graphics/SVG/1.1/DTD/svg11.dtd">
<svg version="1.1" id="圖層_1" xmlns="http://www.w3.org/2000/svg" xmlns:xlink="http://www.w3.org/1999/xlink" x="0px" y="0px"
	 width="12.029px" height="9px" viewBox="0 0 12.029 9" enable-background="new 0 0 12.029 9" xml:space="preserve">
<path id="check" fill="#E60012" d="M2.408,3.304l3.175,3.231c0.559,0.567,0.559,1.48,0,2.044c-0.54,0.553-1.426,0.563-1.975,0.021
	C3.601,8.595,3.594,8.585,3.587,8.579L0.412,5.347c-0.549-0.568-0.549-1.474,0-2.041c0.54-0.556,1.425-0.565,1.976-0.021
	C2.395,3.291,2.401,3.296,2.408,3.304z M11.581,0.42c0.559,0.565,0.559,1.476,0,2.043L5.583,8.579
	c-0.54,0.553-1.426,0.561-1.975,0.02c-0.007-0.006-0.014-0.014-0.021-0.02c-0.551-0.569-0.551-1.475,0-2.044L9.585,0.42
	c0.54-0.553,1.425-0.561,1.976-0.02C11.568,0.406,11.575,0.412,11.581,0.42z"/>
</svg>
